<?xml version="1.0" encoding="utf-8"?>
<!-- Generator: Adobe Illustrator 25.0.1, SVG Export Plug-In . SVG Version: 6.00 Build 0)  -->
<svg version="1.1" id="Layer_1" xmlns="http://www.w3.org/2000/svg" xmlns:xlink="http://www.w3.org/1999/xlink" x="0px" y="0px"
	 viewBox="0 0 708.7 498.9" style="enable-background:new 0 0 708.7 498.9;" xml:space="preserve">
<style type="text/css">
	.st0{fill:none;}
	.st1{fill:#373636;}
	.st2{fill:#5B8CC9;}
	.st3{fill:none;stroke:#010101;stroke-width:0.3924;stroke-miterlimit:10;}
	.st4{fill:#FFFFFF;}
	.st5{fill:#FFFFFF;stroke:#000000;stroke-width:0.5;stroke-miterlimit:10;}
	.st6{fill:#010101;}
	.st7{font-family:'Bauhaus93';}
	.st8{font-size:46.3943px;}
	.st9{fill:#FFFFFF;stroke:#000000;stroke-width:0.25;stroke-miterlimit:10;}
</style>
<g>
	<rect x="-5.2" y="48.4" class="st0" width="190.7" height="90.3"/>
	<rect x="199.5" y="195.7" class="st1" width="11.6" height="46.4"/>
	<polygon class="st2" points="235.9,195.7 251.8,195.7 231.8,218.9 266.5,259.4 250.3,259.4 214.9,218.9 	"/>
	<path class="st1" d="M316.1,213.8c0,9.4,0,18.7,0,28.1c20.7,0,47,0,50-0.3c0.1,0,0.4,0,0.7-0.1c3.9-0.9,5.2-7,5.3-7.6
		c0.4-1.8,0.3-3.1,0.2-4.5c0,0-0.2-5-0.2-14.5c0-5.3,0.3-10.7,0.3-10.8c0-0.1,0-0.3,0-0.6c0-0.4-0.1-1-0.3-1.7
		c-1.2-3.9-5.6-5.3-6.2-5.5c-16.7-0.2-33.5-0.5-50.2-0.7c0.1,4.1,0.1,8.2,0.2,12.3c14.4,0.1,28.8,0.2,43.2,0.3c0,7.2,0,14.3,0,21.5
		c-10,0-20.1-0.1-30.1-0.1c0-5.2,0-10.5,0-15.7C324.7,213.9,320.4,213.9,316.1,213.8z"/>
	<path class="st3" d="M371.7,240.8"/>
	<path class="st3" d="M375.3,237.3"/>
	<path class="st1" d="M378.1,195.7c-0.1,15.3-0.1,30.7-0.2,46c4.4,0,8.7,0,13.1,0.1c0-15.4,0-30.7,0-46.1
		C386.7,195.7,382.4,195.7,378.1,195.7z"/>
	<path class="st1" d="M397.1,195.7c0,9.6,0.1,19.2,0.1,28.9c4.1,0,8.1,0.1,12.2,0.1c0.1-9.7,0.2-19.3,0.3-29
		C405.4,195.7,401.2,195.7,397.1,195.7z"/>
	<path class="st1" d="M441.3,195.7c3.8,0,7.6,0,11.4,0c0,9.7,0.1,19.4,0.1,29.1c-3.9,0-7.8,0-11.7,0c0-0.1,0-0.7,0-0.8
		C441.2,214.6,441.2,205.2,441.3,195.7z"/>
	<path class="st1" d="M518.6,195.7c-6.3-0.8-11.5-1.1-15.2-1.2c-1.3,0-3.9,0-9-0.1c-6.5,0-9.8,0.1-11.8,0c-7.7,0-11.5,0.2-13.9,2.2
		c-2.6,2.2-2.9,5.6-3.4,12.2c-0.5,6.4-0.9,11.2,2,13.7c1.1,0.9,2.2,1,10.3,1.7c3.5,0.3,7.2,0.4,11,0.5c6,0.1,11.7,0,17.1-0.2
		c0.1,1.6,0.1,3.2,0.2,4.9c-15.7,0.1-31.4,0.1-47,0.2c-0.1,4.3-0.2,8.6-0.3,12.9c7.1-0.1,14.3-0.1,21.5-0.2c8.3-0.1,16.7-0.1,25-0.1
		c1.5-0.1,5.1-0.5,8.4-3.1c5-3.8,5.9-9.4,6-10.6c0.4-2.4,0.8-7.4-2.1-11c-2.7-3.3-7-3.9-13.8-4.2c-6.7-0.4-15.9-0.6-27,0
		c0-1.4,0.1-2.9,0.1-4.3c14-0.2,28-0.4,41.9-0.7C518.5,204.1,518.5,199.9,518.6,195.7z"/>
	<path class="st1" d="M460,189.5"/>
	<path class="st1" d="M514.6,245.3"/>
	<path class="st1" d="M516,243.1"/>
	<path class="st1" d="M524.9,233.9"/>
	<path class="st1" d="M404.7,255.1"/>
	<path class="st1" d="M266.1,192.4"/>
	<path class="st1" d="M290,244.3"/>
	<path class="st1" d="M311.6,234.2"/>
	<path class="st1" d="M303.2,245.2"/>
	<path class="st1" d="M300.3,241.8h-39.1c-5.1,0-9.3-4.2-9.3-9.3v-27.4c0-5.1,4.2-9.3,9.3-9.3h39.1c5.1,0,9.3,4.2,9.3,9.3v27.4
		C309.6,237.6,305.4,241.8,300.3,241.8z"/>
	<rect x="265.6" y="207.9" class="st4" width="30.3" height="21.8"/>
	<path class="st1" d="M413.1,249.6"/>
	<path class="st1" d="M411.6,250.5"/>
	<path class="st1" d="M427.1,251.5"/>
	<path class="st1" d="M380.1,189.5"/>
	<path class="st1" d="M396.7,231c18.8,0.1,37.6,0.2,56.4,0.3c0,4.1,0,8.2,0.1,12.4c-15.1-0.1-30.1-0.1-45.2-0.2
		c-4.8,0.2-9.1-2.1-10.8-5.8C395.9,234.8,396.4,232.1,396.7,231z"/>
	<path class="st1" d="M469.9,227.4"/>
	<path class="st1" d="M475.7,228.9"/>
	<path class="st2" d="M377.8,245.3c0,4.2-0.1,8.3-0.1,12.5c4.4,0,8.9,0,13.3,0c0.1-4.1,0.1-8.3,0.2-12.4
		C386.8,245.4,382.3,245.3,377.8,245.3z"/>
	<path class="st5" d="M258,278.6"/>
	<path class="st5" d="M285.3,274.9"/>
	<g>
		<text transform="matrix(1 0 0 1 403.2026 337.2163)" class="st6 st7 st8"> </text>
		<path class="st1" d="M266.2,312c3.5,0,7,0,10.5,0c-0.2-3.6-1-21,0.1-24c0.2-0.5,0.6-1.7,1.5-1.8c0.5-0.1,1,0.5,1.1,0.6
			c0,0,0.5,0.6,0.7,1.5c0.2,1.2,0.2,10.9,0,24.1c3.2-0.1,6.4-0.2,9.6-0.3c-0.4-7.1-0.9-18.6,0.5-23.2c0.2-0.7,0.8-2.7,1.6-2.6
			c0.6,0,1,1.6,1.2,2.3c1.1,4.3,1.1,16.6,1,23.5c3.2,0,6.5,0,9.7,0c0-8.5,0-16.9,0-25.4c0-0.4-0.1-1-0.2-1.7c-0.3-1.8-0.6-4-1.7-5.7
			c-2.2-3.3-6.9-3.5-7.6-3.5c-0.8,0-3.3-0.1-5.8,1.5c-1.9,1.2-2.9,2.7-3.4,3.5c-0.8-0.9-1.8-2.1-3.2-3.3c-0.8-0.7-1.3-1.1-1.9-1.4
			c-1.9-0.9-3.8-0.5-5-0.3c-0.7,0.1-2.6,0.5-4.5,1.9c-2.5,1.9-3.4,4.6-3.9,6.1c0,0-0.3,0.8-0.5,1.7C265,290.2,266.1,309.5,266.2,312
			z"/>
		<path class="st1" d="M309.3,312c3.5,0,7,0,10.5,0c0-2.8,0-5.6,0-8.4c0.9,0,1.8,0,2.7-0.1c0-3,0-5.9,0-8.9c-0.8,0-1.6,0-2.4,0.1
			c-0.4-1.4-1.1-4,0.2-6.5c0.3-0.6,1-2.1,2-2c0.9,0,1.7,1.1,2,2.7c0.1,7.7,0.2,15.4,0.2,23.1c3.5,0,7,0,10.5,0
			c0.5-5.6,1.2-16.1,0-25.4c-0.2-1.4-0.6-3.8-2.2-6c-2.4-3.3-6.7-5.3-11.1-5.1c-4.4,0.2-8.3,2.6-10.4,5.9c-1.9,2.9-2,5.8-2,8.4
			C309.3,296.7,309.3,303.9,309.3,312z"/>
		<path class="st1" d="M341.5,276.6c-0.1,11.7-0.1,23.4-0.2,35.1c3.6,0,7.2,0,10.7,0c0-8.4-0.1-16.9-0.1-25.3c1.1-0.2,2-0.2,2.7-0.2
			c1.2,0.1,2.3,0.2,2.9,1c0.4,0.6,0.3,1.2,0.2,1.9c-0.1,0.6-0.2,1.3-0.7,1.9c-0.7,0.7-1.9,0.9-3,0.5c0,0.4-0.2,8.8-0.2,9.2
			c0,0,0,0.2,0,0.2c1.7,3.7,3.4,7.4,5.1,11.1c3.7,0,7.4,0,11,0c-2-4.9-4-9.7-6.1-14.6c0.3-0.2,0.8-0.6,1.2-1
			c2.3-2.2,3.8-5.7,3.5-9.2c-0.6-6.6-7.7-9.7-8.6-10.1c-2.4-1-4.7-1-9.2-1.1C346.7,276,343.6,276.3,341.5,276.6z"/>
		<path class="st1" d="M373.2,276.6c0,11.7,0,23.4,0,35.1c3.4,0,6.8,0,10.2-0.1c0-11.6,0-23.1,0-34.7
			C380.1,276.8,376.6,276.7,373.2,276.6z"/>
		<path class="st1" d="M393.1,276.6c3.5,0,7.1,0,10.6,0c-3,5.4-6.1,10.7-9.1,16.1c3.1,6.4,6.2,12.9,9.3,19.3c-3.9,0-7.9,0-11.8,0
			c-2.7-6.5-5.3-13-8-19.5C387.1,287.1,390.1,281.9,393.1,276.6z"/>
		<path class="st2" d="M426.2,276.6c0,3.4,0,6.8,0,10.2c-3.1-0.8-5.4-0.4-6.7,0c-0.8,0.2-2.7,0.9-2.7,1.8c0,0.7,1.1,1.4,2.8,1.8
			c2,0,4,0,6,0c0,2.6,0,5.3,0,7.9c-3.4-1-5.7-0.4-6.9,0c-0.7,0.2-2.6,0.9-2.6,1.8c0,0.7,1.3,1.5,3.2,1.9c2.3,0,4.6,0,6.9-0.1
			c0,3.4,0,6.7,0,10.1c-0.7,0.2-7.8,2.6-14.2-1.8c-5.5-3.9-6.4-9.9-6.5-10.9c0-1-0.1-2.6-0.1-4.4c0-4.5-0.1-6.8,0.4-8.4
			c1.5-4.9,6.2-7.4,7.6-8.1C419,275.3,424.5,276.2,426.2,276.6z"/>
		<path class="st9" d="M405.8,308.6"/>
		<polygon class="st1" points="429.8,276.6 429.8,286.7 437.9,286.7 437.9,311.7 448.4,311.7 448.4,286.9 456.4,287 456.5,276.6 		
			"/>
	</g>
	<path class="st9" d="M437.4,266.5"/>
</g>
</svg>
