<?xml version="1.0" encoding="utf-8"?>
<!-- Generator: Adobe Illustrator 25.0.1, SVG Export Plug-In . SVG Version: 6.00 Build 0)  -->
<svg version="1.1" id="Layer_1" xmlns="http://www.w3.org/2000/svg" xmlns:xlink="http://www.w3.org/1999/xlink" x="0px" y="0px"
	 viewBox="0 0 100 50" style="enable-background:new 0 0 100 50;" xml:space="preserve">
<style type="text/css">
	.st0{fill:#363636;}
	.st1{fill:#5B8BC8;}
	.st2{fill:none;stroke:#000000;stroke-width:0.12;stroke-miterlimit:10;}
	.st3{fill:#FFFFFF;stroke:#231F20;stroke-width:0.1529;stroke-miterlimit:10;}
	.st4{font-family:'Bauhaus93';}
	.st5{font-size:14.3641px;}
	.st6{fill:#FFFFFF;stroke:#231F20;stroke-width:7.642667e-02;stroke-miterlimit:10;}
	.st7{fill:none;}
</style>
<g>
	<path class="st0" d="M32.2,21.9H20.4c-1.6,0-2.8-1.3-2.8-2.9v-8.5c0-0.8,0.3-1.5,0.8-2c0.1-0.1,0.7-0.7,1.7-0.8c0.1,0,0.2,0,0.3,0
		c3.9,0,7.9,0,11.8,0c1.6,0,2.8,1.3,2.8,2.9V19C35,20.6,33.8,21.9,32.2,21.9z"/>
	<rect x="-60" y="-38" class="st7" width="57.6" height="28"/>
	<rect x="1.8" y="7.6" class="st0" width="3.5" height="14.4"/>
	<polygon class="st1" points="12.8,7.6 17.6,7.6 11.5,14.8 22,27.3 17.1,27.3 6.4,14.8 	"/>
	<path class="st0" d="M37,13.2c0,2.9,0,5.8,0,8.7c6.3,0,14.2,0,15.1-0.1c0,0,0.1,0,0.2,0c1.2-0.3,1.6-2.2,1.6-2.3
		c0.1-0.5,0.1-1,0.1-1.4c0,0-0.1-1.6-0.1-4.5c0-1.6,0.1-3.3,0.1-3.3c0,0,0-0.1,0-0.2c0-0.1,0-0.3-0.1-0.5c-0.4-1.2-1.7-1.6-1.9-1.7
		C47,7.8,41.9,7.7,36.9,7.6c0,1.3,0,2.5,0.1,3.8c4.3,0,8.7,0.1,13,0.1c0,2.2,0,4.4,0,6.7c-3,0-6.1,0-9.1,0c0-1.6,0-3.2,0-4.9
		C39.6,13.2,38.3,13.2,37,13.2z"/>
	<path class="st2" d="M53.8,21.6"/>
	<path class="st2" d="M54.9,20.5"/>
	<path class="st0" d="M55.7,7.6c0,4.7,0,9.5-0.1,14.2c1.3,0,2.6,0,4,0c0-4.8,0-9.5,0-14.3C58.3,7.6,57,7.6,55.7,7.6z"/>
	<path class="st0" d="M61.4,7.6c0,3,0,6,0,8.9c1.2,0,2.4,0,3.7,0c0-3,0.1-6,0.1-9C63.9,7.6,62.7,7.6,61.4,7.6z"/>
	<path class="st0" d="M74.8,7.6c1.1,0,2.3,0,3.4,0c0,3,0,6,0,9c-1.2,0-2.3,0-3.5,0c0,0,0-0.2,0-0.2C74.7,13.5,74.7,10.5,74.8,7.6z"
		/>
	<path class="st0" d="M98.1,7.6c-1.9-0.3-3.5-0.3-4.6-0.4c-0.4,0-1.2,0-2.7,0c-2,0-3,0-3.6,0c-2.3,0-3.5,0.1-4.2,0.7
		c-0.8,0.7-0.9,1.7-1,3.8c-0.2,2-0.3,3.5,0.6,4.2c0.3,0.3,0.7,0.3,3.1,0.5c1.1,0.1,2.2,0.1,3.3,0.2c1.8,0,3.5,0,5.2-0.1
		c0,0.5,0,1,0.1,1.5c-4.7,0-9.5,0-14.2,0.1c0,1.3-0.1,2.7-0.1,4c2.2,0,4.3,0,6.5-0.1c2.5,0,5,0,7.5,0c0.5,0,1.5-0.2,2.5-1
		c1.5-1.2,1.8-2.9,1.8-3.3c0.1-0.8,0.2-2.3-0.6-3.4c-0.8-1-2.1-1.2-4.2-1.3c-2-0.1-4.8-0.2-8.2,0c0-0.4,0-0.9,0-1.3
		c4.2-0.1,8.4-0.1,12.7-0.2C98.1,10.2,98.1,8.9,98.1,7.6z"/>
	<path class="st0" d="M80.4,5.7"/>
	<path class="st0" d="M96.9,22.9"/>
	<path class="st0" d="M97.3,22.3"/>
	<path class="st0" d="M100,19.4"/>
	<path class="st0" d="M63.7,26"/>
	<path class="st0" d="M21.9,6.6"/>
	<path class="st0" d="M29.1,22.6"/>
	<path class="st0" d="M35.6,19.5"/>
	<path class="st0" d="M33.1,22.9"/>
	<path class="st0" d="M66.3,24.3"/>
	<path class="st0" d="M65.8,24.6"/>
	<path class="st0" d="M70.5,24.9"/>
	<path class="st0" d="M56.3,5.7"/>
	<path class="st0" d="M61.3,18.5c5.7,0,11.4,0.1,17,0.1c0,1.3,0,2.5,0,3.8c-4.5,0-9.1,0-13.6,0c-1.4,0.1-2.7-0.6-3.3-1.8
		C61.1,19.7,61.2,18.9,61.3,18.5z"/>
	<path class="st0" d="M83.4,17.4"/>
	<path class="st0" d="M85.1,17.9"/>
	<path class="st1" d="M55.6,23c0,1.3,0,2.6,0,3.9c1.3,0,2.7,0,4,0c0-1.3,0-2.6,0.1-3.8C58.3,23,57,23,55.6,23z"/>
	<path class="st3" d="M19.4,33.3"/>
	<path class="st3" d="M27.7,32.1"/>
	<g>
		<text transform="matrix(0.975 0 0 1 63.2744 51.4092)" class="st4 st5"> </text>
		<path class="st0" d="M21.9,43.6c1.1,0,2.1,0,3.2,0c-0.1-1.1-0.3-6.5,0-7.4c0.1-0.2,0.2-0.5,0.4-0.6c0.2,0,0.3,0.1,0.3,0.2
			c0,0,0.2,0.2,0.2,0.5c0.1,0.4,0.1,3.4,0,7.5c1,0,1.9-0.1,2.9-0.1c-0.1-2.2-0.3-5.8,0.2-7.2c0.1-0.2,0.3-0.8,0.5-0.8
			c0.2,0,0.3,0.5,0.4,0.7c0.3,1.3,0.3,5.1,0.3,7.3c1,0,2,0,2.9,0c0-2.6,0-5.2,0-7.9c0-0.1,0-0.3-0.1-0.5c-0.1-0.5-0.2-1.3-0.5-1.8
			c-0.7-1-2.1-1.1-2.3-1.1c-0.3,0-1,0-1.8,0.5c-0.6,0.4-0.9,0.8-1,1.1c-0.2-0.3-0.6-0.6-1-1c-0.3-0.2-0.4-0.3-0.6-0.4
			c-0.6-0.3-1.1-0.2-1.5-0.1c-0.2,0-0.8,0.2-1.3,0.6c-0.8,0.6-1,1.4-1.2,1.9c0,0-0.1,0.3-0.1,0.5C21.5,36.9,21.9,42.8,21.9,43.6z"/>
		<path class="st0" d="M34.9,43.6c1.1,0,2.1,0,3.2,0c0-0.9,0-1.7,0-2.6c0.3,0,0.5,0,0.8,0c0-0.9,0-1.8,0-2.7c-0.2,0-0.5,0-0.7,0
			c-0.1-0.4-0.3-1.3,0.1-2c0.1-0.2,0.3-0.6,0.6-0.6c0.3,0,0.5,0.3,0.6,0.8c0,2.4,0,4.8,0.1,7.2c1.1,0,2.1,0,3.2,0
			c0.2-1.7,0.4-5,0-7.9c-0.1-0.4-0.2-1.2-0.7-1.9c-0.7-1-2-1.6-3.4-1.6c-1.3,0.1-2.5,0.8-3.2,1.8c-0.6,0.9-0.6,1.8-0.6,2.6
			C34.9,38.9,34.9,41.1,34.9,43.6z"/>
		<path class="st0" d="M44.6,32.6c0,3.6,0,7.2-0.1,10.9c1.1,0,2.2,0,3.2,0c0-2.6,0-5.2,0-7.8c0.3-0.1,0.6-0.1,0.8-0.1
			c0.4,0,0.7,0.1,0.9,0.3c0.1,0.2,0.1,0.4,0.1,0.6c0,0.2-0.1,0.4-0.2,0.6c-0.2,0.2-0.6,0.3-0.9,0.2c0,0.1-0.1,2.7-0.1,2.9
			c0,0,0,0.1,0,0.1c0.5,1.1,1,2.3,1.5,3.4c1.1,0,2.2,0,3.3,0c-0.6-1.5-1.2-3-1.8-4.5c0.1-0.1,0.2-0.2,0.4-0.3c0.7-0.7,1.1-1.8,1-2.8
			c-0.2-2.1-2.3-3-2.6-3.1c-0.7-0.3-1.4-0.3-2.8-0.3C46.2,32.5,45.3,32.5,44.6,32.6z"/>
		<path class="st0" d="M54.2,32.6c0,3.6,0,7.2,0,10.9c1,0,2.1,0,3.1,0c0-3.6,0-7.2,0-10.7C56.3,32.7,55.3,32.7,54.2,32.6z"/>
		<path class="st0" d="M60.2,32.6c1.1,0,2.1,0,3.2,0c-0.9,1.7-1.8,3.3-2.8,5c0.9,2,1.9,4,2.8,6c-1.2,0-2.4,0-3.6,0
			c-0.8-2-1.6-4-2.4-6.1C58.4,35.9,59.3,34.3,60.2,32.6z"/>
		<path class="st1" d="M70.2,32.6c0,1,0,2.1,0,3.1c-1-0.3-1.6-0.1-2,0c-0.2,0.1-0.8,0.3-0.8,0.5c0,0.2,0.3,0.4,0.8,0.6
			c0.6,0,1.2,0,1.8,0c0,0.8,0,1.6,0,2.4c-1-0.3-1.7-0.1-2.1,0c-0.2,0.1-0.8,0.3-0.8,0.6c0,0.2,0.4,0.5,1,0.6c0.7,0,1.4,0,2.1,0
			c0,1,0,2.1,0,3.1c-0.2,0.1-2.4,0.8-4.3-0.6c-1.7-1.2-1.9-3.1-2-3.4c0-0.3,0-0.8,0-1.4c0-1.4,0-2.1,0.1-2.6
			c0.5-1.5,1.9-2.3,2.3-2.5C68,32.2,69.7,32.5,70.2,32.6z"/>
		<path class="st6" d="M64,42.5"/>
		<polygon class="st0" points="71.3,32.6 71.3,35.8 73.7,35.8 73.7,43.5 76.9,43.5 76.9,35.8 79.3,35.9 79.3,32.6 		"/>
	</g>
	<path class="st6" d="M73.6,29.5"/>
	<path class="st7" d="M27,1.2"/>
</g>
</svg>
